<?xml version="1.0" encoding="UTF-8" standalone="no"?>
<!-- Created with Inkscape (http://www.inkscape.org/) -->

<svg
   xmlns:dc="http://purl.org/dc/elements/1.1/"
   xmlns:cc="http://creativecommons.org/ns#"
   xmlns:rdf="http://www.w3.org/1999/02/22-rdf-syntax-ns#"
   xmlns:svg="http://www.w3.org/2000/svg"
   xmlns="http://www.w3.org/2000/svg"
   xmlns:sodipodi="http://sodipodi.sourceforge.net/DTD/sodipodi-0.dtd"
   xmlns:inkscape="http://www.inkscape.org/namespaces/inkscape"
   width="515.60114mm"
   height="469.49777mm"
   viewBox="0 0 1826.9331 1663.5747"
   id="svg35808"
   version="1.1"
   inkscape:version="0.92.3 (2405546, 2018-03-11)"
   sodipodi:docname="motherandbaby-1921-silhouette.svg">
  <defs
     id="defs35810" />
  <sodipodi:namedview
     id="base"
     pagecolor="#ffffff"
     bordercolor="#666666"
     borderopacity="1.0"
     inkscape:pageopacity="0.0"
     inkscape:pageshadow="2"
     inkscape:zoom="0.38265729"
     inkscape:cx="832.30129"
     inkscape:cy="810.3267"
     inkscape:document-units="px"
     inkscape:current-layer="g8757"
     showgrid="false"
     fit-margin-top="0"
     fit-margin-left="0"
     fit-margin-right="0"
     fit-margin-bottom="0"
     inkscape:window-width="1920"
     inkscape:window-height="1017"
     inkscape:window-x="3832"
     inkscape:window-y="-8"
     inkscape:window-maximized="1" />
  <metadata
     id="metadata35813">
    <rdf:RDF>
      <cc:Work
         rdf:about="">
        <dc:format>image/svg+xml</dc:format>
        <dc:type
           rdf:resource="http://purl.org/dc/dcmitype/StillImage" />
        <dc:title></dc:title>
        <dc:creator>
          <cc:Agent>
            <dc:title>j4p4n</dc:title>
          </cc:Agent>
        </dc:creator>
        <cc:license
           rdf:resource="http://creativecommons.org/publicdomain/zero/1.0/" />
      </cc:Work>
      <cc:License
         rdf:about="http://creativecommons.org/publicdomain/zero/1.0/">
        <cc:permits
           rdf:resource="http://creativecommons.org/ns#Reproduction" />
        <cc:permits
           rdf:resource="http://creativecommons.org/ns#Distribution" />
        <cc:permits
           rdf:resource="http://creativecommons.org/ns#DerivativeWorks" />
      </cc:License>
    </rdf:RDF>
  </metadata>
  <g
     inkscape:label="Layer 1"
     inkscape:groupmode="layer"
     id="layer1"
     transform="translate(3740.7227,-1395.9285)">
    <g
       id="g8757"
       transform="matrix(2.89,0,0,2.89,4550.5069,-3932.8873)">
      <path
         style="fill:#000000;stroke-width:3.08266687"
         d="M 1152.9121 17.076172 C 1118.0859 17.451666 1080.454 28.808389 1055.4668 47.673828 C 1032.2713 65.186767 1008.1348 100.63577 1005.7617 120.67188 C 1004.8107 128.70191 1005.5477 140.76097 1007.4004 147.4707 C 1010.4624 158.56091 1010.0133 160.79855 1002.4629 172.08203 C 999.00087 177.25614 995.97099 181.85666 994.63867 183.94922 C 994.13074 184.45092 993.63245 184.91778 993.14844 185.33594 C 983.85663 187.18585 883.46054 200.22259 845.60938 204.44531 C 830.15597 206.16945 812.8161 209.54134 807.07617 211.9375 C 801.33625 214.33335 784.58167 216.70744 769.84375 217.21484 C 747.31932 217.99044 742.0484 217.23527 736.7832 212.4707 C 731.39624 207.59547 729.25145 207.3258 721.46094 210.55273 C 716.34494 212.67176 711.61915 217.42974 710.60156 221.48438 C 708.95758 228.03504 708.00228 228.36328 699.69727 225.22852 C 699.26863 225.06671 698.90941 224.95365 698.51172 224.8125 C 696.97495 223.97854 695.64476 223.54854 694.24219 223.58789 C 690.45935 222.92001 688.13147 224.02427 684.51953 227.29297 C 678.71549 232.54562 665.14344 235.63467 643.35352 236.60352 L 597.12109 236.14648 C 591.11498 235.86447 584.86133 235.52095 578.23242 235.08594 C 488.75278 229.21407 468.6959 233.42424 435.75977 264.99414 C 424.00648 276.25975 409.79991 288.99409 404.18945 293.29102 C 386.33989 306.96233 374.76887 337.22574 368.13867 387.58203 C 363.5643 422.32646 361.43604 427.07974 335.54688 460.39844 C 332.2515 464.63957 328.52027 474.34943 327.25391 481.97656 C 325.33279 493.54643 323.3145 496.61079 315.07422 500.46875 C 309.64225 503.01195 303.64584 508.76493 301.75 513.25391 C 298.51505 520.91248 296.84498 521.48458 274.65625 522.52344 C 243.39739 523.9874 216.73681 536.64717 167.625 573.3457 C 147.36263 588.48653 121.18411 606.81711 109.45117 614.08203 C 89.697751 626.31313 87.026063 627.14204 73.341797 625.25977 C 58.995066 623.28686 58.137943 623.62676 44.027344 636.95898 L 29.492188 650.69336 L 27.558594 688.86914 C 25.9479 720.67394 24.499017 728.84524 18.875 737.83398 C 14.982517 744.05511 12.113281 753.63715 12.113281 760.4668 C 12.106499 767.62876 9.6637241 775.40915 5.9355469 780.14844 C -1.0032278 788.9698 -1.6763159 794.1057 2.9667969 802.78125 C 6.0975533 808.63092 6.3477759 808.61459 15.259766 802.02539 C 19.539856 798.8611 22.703165 797.27141 24.564453 797.12891 C 25.019912 797.21392 25.453767 797.32349 25.847656 797.4707 C 26.045368 797.65492 26.224878 797.85692 26.386719 798.07812 C 26.839499 799.4658 25.793009 802.33271 23.025391 806.55664 C 18.293805 813.77779 18.433833 814.62538 25.824219 823.4082 C 34.997927 834.31067 44.368434 837.54831 49.357422 831.53711 C 54.468175 825.37887 58.341797 826.2211 58.341797 833.49219 C 58.341797 836.93645 60.528191 840.59323 63.201172 841.61914 C 65.874152 842.64474 69.308269 846.76402 70.832031 850.77148 C 72.355485 854.77895 75.556142 858.05664 77.943359 858.05664 C 80.330885 858.05664 83.009909 860.83172 83.896484 864.22266 C 84.870915 867.94806 88.10045 870.38867 92.058594 870.38867 C 92.760979 870.38867 93.461579 870.48244 94.150391 870.62109 C 95.610957 871.04427 97.538382 872.04915 99.404297 873.37109 C 99.797654 873.81209 100.10489 874.28336 100.29297 874.77344 C 104.57448 885.93084 117.94824 883.28605 124.86328 869.91406 C 129.16315 861.5989 133.00101 860.87453 134.27148 866.04102 C 134.48593 867.24496 134.63325 868.62975 134.70898 870.12695 C 134.73082 872.14004 134.54871 874.52547 134.10742 877.28516 C 133.6773 879.97508 133.47485 882.39296 133.49609 884.55078 C 132.87604 888.94207 133.27082 891.1535 135.37695 892.94922 C 137.38216 896.43156 140.99676 898.13281 146.27344 898.13281 C 155.07753 898.13281 160.06836 885.30472 160.06836 862.68164 C 160.06836 844.9486 164.32062 829.79821 172.66602 817.79492 C 175.68487 813.45299 179.02046 806.45229 180.07812 802.23828 C 182.96751 790.72668 204.7324 766.87899 224.76172 753.27734 C 245.17791 739.41305 303.81753 711.80452 361.98438 688.67188 C 428.5595 662.19577 442.91899 653.40835 459.08789 629.25195 C 466.71749 617.85348 482.1901 599.12705 493.47266 587.63672 C 504.75491 576.14669 518.20917 559.80936 523.37109 551.33203 C 528.3116 543.21798 548.12575 522.23505 563.10156 508.10938 C 571.1917 501.10631 578.02193 495.9997 580.69531 495.50391 C 581.53375 499.57006 582.8 514.39605 583.75586 532.06445 C 586.10146 575.43388 593.01921 628.245 598.99805 648.42383 C 602.6322 660.68914 602.47537 663.75127 597.62695 675.0625 C 594.61365 682.09191 586.06255 693.92738 578.625 701.36523 C 561.11052 718.87941 540.32839 747.10122 532.90625 763.44922 C 525.69589 779.3305 524.95068 801.15858 531.53125 803.68359 C 534.18913 804.70365 536.1543 809.30818 536.1543 814.51172 C 536.1543 820.30004 539.95125 828.10844 546.68164 836.16406 C 557.77369 849.44049 580.30344 910.73461 584.18945 938.20703 C 585.3929 946.71485 587.22353 951.34768 599.66797 964.56641 C 602.84863 968.1056 606.92461 972.24149 612.17773 977.31055 C 612.21493 977.34644 612.24589 977.37808 612.2832 977.41406 C 616.97198 982.06598 622.39484 987.3783 628.88086 993.69531 C 652.38219 1016.5841 672.96714 1039.0271 674.625 1043.5703 C 676.28193 1048.1139 676.92965 1056.4371 676.0625 1062.0664 C 673.99403 1075.4939 687.7888 1092.4912 709.81445 1103.6523 C 718.51559 1108.0618 732.96982 1117.6431 741.93359 1124.9453 C 753.60919 1134.456 761.92843 1138.6714 771.26953 1139.8086 C 778.44105 1140.6816 803.03009 1143.6036 825.91211 1146.3027 C 861.26845 1150.473 868.67672 1152.2887 875.23633 1158.3945 C 879.48178 1162.3462 888.38594 1167.3191 895.02539 1169.4434 C 901.66453 1171.5676 912.76291 1178.4416 919.6875 1184.7207 C 927.44133 1191.752 938.19833 1197.7044 947.69141 1200.2168 C 949.21345 1200.6197 950.62307 1201.0041 952.03711 1201.3887 C 953.58857 1202.3639 956.14044 1203.0877 958.78711 1203.2656 C 961.52288 1204.0537 963.33962 1204.622 963.79297 1204.8379 C 963.83526 1204.9734 963.86357 1205.1248 963.88672 1205.2852 C 963.07698 1208.2426 954.09134 1228.6524 942.86719 1252.9629 C 898.63131 1348.7739 878.28808 1393.0048 867.74219 1423.1309 C 866.85424 1423.0637 866.49635 1424.1385 866.62109 1426.3633 C 858.79547 1449.514 856.83554 1464.6127 853.72461 1490.3652 C 851.95947 1504.9752 844.40248 1544.5099 836.93164 1578.2207 C 827.62384 1620.219 822.66841 1650.9026 821.1875 1675.6934 L 819.02539 1711.873 L 800.60547 1732.7227 L 782.18555 1753.5723 L 790.76758 1753.916 L 768.95117 1790.4883 L 827.91992 1783.873 C 839.08226 1792.437 929.00239 1787.7719 1031.5781 1790.4023 C 1212.7517 1795.0479 1511.4684 1783.922 1567.6016 1785.6973 L 1567.6016 1785.6934 C 1582.8608 1786.1761 1601.9348 1786.8567 1609.9883 1787.2051 L 1624.6309 1787.8398 L 1624.543 1776.6348 L 1627.416 1776.6914 L 1627.416 1776.6562 L 1631.127 1776.6914 L 1629.3203 1755.8848 C 1628.3265 1744.4404 1625.957 1692.0731 1624.0547 1639.5137 C 1619.7744 1521.2635 1624.5517 1432.3906 1641.2422 1319.7559 C 1647.2034 1279.5271 1652.0801 1246.0071 1652.0801 1245.2676 C 1652.0801 1240.9145 1668.0889 1249.4304 1673.9453 1256.8984 C 1684.4335 1270.2735 1716.8712 1293.1113 1722.7363 1291.25 C 1725.5144 1290.368 1738.5854 1293.8046 1751.7832 1298.8867 C 1764.4952 1303.7817 1777.7667 1307.7699 1782.041 1308.0137 C 1782.4027 1308.0809 1782.7157 1308.127 1782.916 1308.127 C 1782.9887 1308.127 1783.0897 1308.0875 1783.1777 1308.0664 C 1783.2272 1308.0714 1783.3007 1308.0872 1783.3398 1308.0879 C 1783.4731 1308.09 1783.6368 1308.0462 1783.8145 1307.9805 C 1784.137 1308.0523 1784.4622 1308.125 1784.5957 1308.125 C 1784.8416 1308.125 1785.2461 1307.8951 1785.7656 1307.4922 C 1785.9583 1307.4677 1786.1102 1307.4252 1786.1641 1307.3379 C 1786.2331 1307.2259 1786.3459 1307.065 1786.4219 1306.9453 C 1786.5067 1306.8699 1786.6023 1306.7774 1786.6914 1306.6953 C 1790.741 1304.3822 1795.7976 1299.0254 1802.1836 1290.3125 C 1809.2928 1280.6129 1826.2465 1260.419 1839.8574 1245.4375 C 1856.8981 1226.681 1865.06 1215.1612 1866.0684 1208.4453 C 1870.7139 1177.5126 1870.6321 1176.8359 1859.8945 1157.4629 C 1854.1062 1147.0191 1849.3711 1137.2077 1849.3711 1135.6602 C 1849.3711 1134.1123 1860.1981 1127.0764 1873.4316 1120.0254 L 1897.4922 1107.2051 L 1911.877 1063.5508 C 1923.4215 1028.5153 1928.478 1005.6485 1937.4941 947.73047 L 1948.7285 875.56641 L 1930.9551 830.58984 C 1914.5513 789.07927 1910.4792 781.93431 1878.0859 737.83398 C 1853.5722 704.46082 1842.2624 687.93602 1831.6973 678.30078 C 1829.0618 675.01744 1827.3281 672.96767 1826.9004 672.68359 C 1826.4461 672.38178 1824.1882 671.60172 1820.791 670.5293 C 1810.9502 665.29412 1798.5872 662.67832 1775.8184 656.45117 C 1725.5777 642.7108 1725.277 642.66898 1697.209 645.74609 C 1658.7724 649.96041 1619.6745 658.73628 1594.5566 668.78516 C 1573.748 677.1099 1573.3543 677.14365 1539.2812 673.5918 C 1492.6624 668.73228 1482.3542 669.10581 1473.416 675.97461 C 1472.3537 676.79095 1471.4523 677.55265 1470.666 678.32227 L 1466.3867 680.62695 L 1466.8281 685.49023 C 1466.184 688.70032 1466.1023 693.05131 1466.2578 699.69531 C 1466.7757 721.81191 1460.9759 732.59536 1445.2383 738.77734 C 1435.526 742.59184 1433.9112 744.46782 1435.4062 750.18555 C 1437.0095 756.31605 1436.5273 756.67066 1430.7812 753.5957 C 1420.4112 748.04567 1412.5143 749.57794 1401.4629 759.28125 C 1395.7516 764.29582 1385.0823 769.74582 1377.7539 771.39258 C 1360.5238 775.26388 1351.4286 782.53633 1350.0918 798.6543 C 1350.0722 798.87298 1350.0512 799.08965 1350.0371 799.30273 C 1350.0119 799.6685 1350.0097 800.06079 1349.9922 800.43555 C 1349.9902 800.54944 1349.9785 800.6758 1349.9785 800.78711 C 1349.9785 800.79359 1349.9785 800.80209 1349.9785 800.80859 C 1349.3184 817.49691 1356.1989 843.02766 1370.3145 882.7207 L 1381.1191 913.09961 L 1372.0645 931.04883 C 1367.0844 940.92014 1361.2012 955.0356 1358.9922 962.41797 C 1356.7828 969.80003 1353.3696 976.45784 1351.4062 977.21094 C 1349.4429 977.96434 1328.5501 975.06173 1304.9785 970.76172 C 1247.2019 960.22177 1204.3301 954.55252 1162.4629 951.91406 L 1127.5391 949.71289 L 1113.1406 931.63867 C 1100.3081 915.53205 1096.0589 912.53934 1074.0801 904.11133 C 1060.5163 898.91025 1041.0947 892.49629 1030.9219 889.85938 C 1015.3957 885.83526 1009.8999 882.40231 996.69531 868.47852 C 981.64018 852.60371 980.28544 851.89258 965.09961 851.89258 C 949.4671 851.89258 949.23242 851.75344 949.23242 842.48633 C 949.23242 834.52873 947.45256 832.33978 937.67188 828.26758 C 924.0021 822.57574 921.6394 819.5157 921.4082 807.19336 C 921.18995 795.5714 900.6236 771.74219 890.81055 771.74219 C 875.98569 771.74219 868.95924 762.63805 864.64258 737.83398 C 862.39531 724.921 847.92934 702.43998 826.95117 679.26172 C 818.51114 669.93665 809.17379 656.06515 806.20117 648.43555 C 797.44948 625.97246 783.47899 606.5576 769.56445 597.51953 C 748.37852 583.75851 742.68684 577.22625 730.04883 552.17188 C 722.31076 536.8311 717.62269 526.47567 717.49414 519.29492 C 717.91873 517.90766 718.50668 516.41671 719.24219 514.65625 C 719.9363 512.99503 720.60627 511.55156 721.37305 510.27734 C 728.17907 504.5672 744.38171 502.74323 773.51953 500.63281 C 799.79927 498.72927 833.48377 495.64493 848.37305 493.7793 C 860.81406 492.22066 871.51259 491.28773 874.98633 491.39844 C 876.00716 492.26784 877.14194 493.43373 878.41797 494.91016 C 880.39774 497.93245 886.89328 507.90031 896.375 522.48438 C 906.70142 538.36775 916.53254 551.34918 926.88086 562.34766 C 929.00375 564.76971 930.85711 566.64213 932.49609 568.0625 C 948.11563 583.31541 965.25937 594.60052 987.20703 604.875 C 1015.9313 618.3219 1019.2568 620.74777 1021.9727 630.2168 C 1023.6422 636.03841 1027.323 641.1391 1030.2617 641.70508 C 1034.6154 642.54326 1035.5469 640.30115 1035.5469 628.98438 C 1035.5469 616.45765 1036.2923 615.10283 1043.9922 613.63086 C 1054.7488 611.57441 1062.5861 615.75745 1063.8457 624.22461 C 1065.179 633.189 1074.1898 638.77115 1079.2148 633.74609 C 1082.1767 630.78427 1081.9264 626.69659 1078.041 614.54688 C 1075.3264 606.05783 1073.623 599.11328 1074.2559 599.11328 C 1074.8887 599.11328 1080.143 603.27112 1085.9316 608.35352 C 1095.2311 616.51858 1096.9174 617.03997 1100.4082 612.83398 C 1103.7144 608.85056 1102.2188 603.91347 1091.252 582.58203 C 1084.0441 568.56175 1075.4366 555.39752 1072.123 553.32812 C 1049.9781 539.49836 1028.1832 529.47702 1010.8848 525.16992 L 992.20312 520.51953 C 991.59059 520.09748 991.02352 519.64685 990.49609 519.16211 L 983.27734 498.25977 L 975.70508 476.33984 L 984.48633 459.88867 C 989.31563 450.84074 999.82038 434.82614 1007.8301 424.29883 C 1018.4708 410.314 1023.9076 399.32291 1028.0137 383.49219 C 1032.2018 367.34518 1036.2339 359.30332 1043.8438 351.92773 C 1055.4521 340.67662 1057.0149 341.47671 1064.9238 362.72461 C 1069.8305 375.90702 1072.513 378.6157 1088.8086 386.8418 C 1104.7592 394.89341 1108.2875 395.64393 1115.7266 392.5625 C 1120.7088 390.49896 1129.9016 389.83752 1137.7168 390.98242 C 1155.0651 393.52346 1188.7172 383.40631 1198.873 372.5957 C 1203.8885 367.25714 1209.4358 364.83008 1216.623 364.83008 C 1233.673 364.83008 1239.002 360.2681 1239.002 345.67383 C 1239.002 338.64812 1240.641 328.37117 1242.6426 322.83594 C 1245.74 314.26982 1248.5056 312.23985 1261.2383 309.18555 C 1273.8035 306.17101 1278.4737 302.81497 1290.4375 288.20312 C 1298.2702 278.63669 1308.2801 263.18054 1312.6797 253.85547 C 1320.0442 238.24762 1320.6844 233.59335 1320.7461 195.2832 C 1320.7991 162.52124 1319.6741 150.99693 1315.457 141.11328 C 1307.6656 122.85341 1267.9587 79.040022 1232.0938 49.128906 C 1203.5473 25.321162 1199.2928 22.839832 1181.168 19.419922 C 1172.1956 17.726941 1162.6634 16.971033 1152.9121 17.076172 z "
         transform="matrix(0.32439445,0,0,0.32439445,-2868.9376,1843.8809)"
         id="path8769" />
    </g>
  </g>
</svg>
